<svg id="filtro" xmlns="http://www.w3.org/2000/svg" viewBox="0 0 274.53 437.19"><defs><style>.cls-1{fill:#f9a333;}.cls-2{fill:#fff;}.cls-3{fill:#f68e49;}.cls-4{fill:#4a4742;}.cls-5{fill:#fffefd;}</style></defs><rect class="cls-1" x="40.88" y="301.73" width="172.75" height="128.07"/><rect class="cls-2" x="40.88" y="396.14" width="192.77" height="33.66"/><polygon class="cls-2" points="233.65 301.73 40.88 301.73 8.26 7.39 266.27 7.39 233.65 301.73"/><polygon class="cls-1" points="210.81 301.73 37.57 301.73 8.26 7.39 240.13 7.39 210.81 301.73"/><polygon class="cls-2" points="263.74 30.25 266.27 7.39 8.26 7.39 10.79 30.25 263.74 30.25"/><line class="cls-3" x1="41.17" y1="399.83" x2="233.36" y2="399.83"/><path class="cls-2" d="M178.91,402.56a40.1,40.1,0,0,0-79.85,0Z" transform="translate(-1.72 -2.81)"/><line class="cls-3" x1="12.93" y1="34.15" x2="264.66" y2="34.15"/><path class="cls-4" d="M242.76,440H35.21V297.15H242.76ZM50,425.22H228V311.93H50Z" transform="translate(-1.72 -2.81)"/><path class="cls-4" d="M242,311.93H36L1.72,2.81H276.25ZM49.22,297.15H228.75l31-279.56H18.23Z" transform="translate(-1.72 -2.81)"/><rect class="cls-4" x="41.17" y="392.44" width="192.19" height="14.78"/><path class="cls-4" d="M187,410H91l.74-8.07a47.49,47.49,0,0,1,94.57,0ZM108.2,395.17h61.57a32.74,32.74,0,0,0-61.57,0Z" transform="translate(-1.72 -2.81)"/><rect class="cls-4" x="12.94" y="26.76" width="251.72" height="14.78"/><circle class="cls-2" cx="137.5" cy="164.88" r="36.45"/><path class="cls-5" d="M139.05,122.28A3.07,3.07,0,0,1,136,119.2V104.06a3.08,3.08,0,1,1,6.15,0V119.2A3.07,3.07,0,0,1,139.05,122.28Z" transform="translate(-1.72 -2.81)"/><path class="cls-5" d="M139.05,234.25a3.07,3.07,0,0,1-3.08-3.08V216a3.08,3.08,0,1,1,6.15,0v15.13A3.07,3.07,0,0,1,139.05,234.25Z" transform="translate(-1.72 -2.81)"/><path class="cls-5" d="M114.84,128.76a3.07,3.07,0,0,1-2.67-1.54l-7.57-13.1a3.08,3.08,0,0,1,5.34-3.08l7.56,13.1a3.08,3.08,0,0,1-1.13,4.21A3,3,0,0,1,114.84,128.76Z" transform="translate(-1.72 -2.81)"/><path class="cls-5" d="M170.83,225.74a3.09,3.09,0,0,1-2.67-1.54l-7.57-13.11a3.08,3.08,0,0,1,5.33-3.08l7.57,13.11a3.08,3.08,0,0,1-1.13,4.2A3,3,0,0,1,170.83,225.74Z" transform="translate(-1.72 -2.81)"/><path class="cls-5" d="M97.11,146.49a3.11,3.11,0,0,1-1.54-.42l-13.1-7.56a3.08,3.08,0,1,1,3.08-5.34l13.1,7.57a3.08,3.08,0,0,1-1.54,5.75Z" transform="translate(-1.72 -2.81)"/><path class="cls-5" d="M194.08,202.47a3.09,3.09,0,0,1-1.54-.41l-13.1-7.56a3.08,3.08,0,0,1,3.08-5.34l13.1,7.57a3.08,3.08,0,0,1-1.54,5.74Z" transform="translate(-1.72 -2.81)"/><path class="cls-5" d="M90.62,170.7H75.49a3.08,3.08,0,0,1,0-6.16H90.62a3.08,3.08,0,0,1,0,6.16Z" transform="translate(-1.72 -2.81)"/><path class="cls-5" d="M202.6,170.7H187.47a3.08,3.08,0,0,1,0-6.16H202.6a3.08,3.08,0,1,1,0,6.16Z" transform="translate(-1.72 -2.81)"/><path class="cls-5" d="M84,202.47a3.08,3.08,0,0,1-1.54-5.74l13.1-7.57a3.08,3.08,0,0,1,3.08,5.34l-13.1,7.56A3.09,3.09,0,0,1,84,202.47Z" transform="translate(-1.72 -2.81)"/><path class="cls-5" d="M181,146.49a3.08,3.08,0,0,1-1.54-5.75l13.1-7.57a3.08,3.08,0,0,1,3.08,5.34l-13.1,7.56A3.11,3.11,0,0,1,181,146.49Z" transform="translate(-1.72 -2.81)"/><path class="cls-5" d="M107.27,225.74a3.09,3.09,0,0,1-2.67-4.62L112.17,208a3.08,3.08,0,0,1,5.33,3.08l-7.56,13.11A3.1,3.1,0,0,1,107.27,225.74Z" transform="translate(-1.72 -2.81)"/><path class="cls-5" d="M163.25,128.76a3,3,0,0,1-1.53-.41,3.08,3.08,0,0,1-1.13-4.21l7.57-13.1a3.08,3.08,0,1,1,5.33,3.08l-7.57,13.1A3.07,3.07,0,0,1,163.25,128.76Z" transform="translate(-1.72 -2.81)"/></svg>